<svg width="20" height="40" viewBox="0 0 20 40" fill="none" xmlns="http://www.w3.org/2000/svg">
<path d="M0.687075 10.1076C0.328321 8.02707 1.91618 6.12305 4.00998 6.12305H15.9746C18.0395 6.12305 19.6196 7.97759 19.309 10.0365L17.5385 21.7708L15.6863 31.9118C15.3915 33.5257 13.9964 34.6973 12.3693 34.6973H7.60392C5.94426 34.6973 4.53125 33.4795 4.27241 31.8261L2.69823 21.7708L0.687075 10.1076Z" fill="#fef7ec"/>
<path d="M9.7184 0.0344998C9.60247 0.0977538 9.49763 0.179806 9.4081 0.277377C9.26038 0.442019 9.25296 0.574692 9.22935 2.98513L9.20575 5.51327L1.7249 5.56021L1.2824 5.77928C0.927776 5.94792 0.622972 6.20708 0.398173 6.53106C0.173375 6.85504 0.0363781 7.2326 0.000743334 7.62639C-0.0228661 7.955 0.512735 11.5241 2.06489 21.4005C3.22108 28.7339 4.19109 34.7678 4.22347 34.8229C4.2841 34.9167 4.35176 35.0056 4.42584 35.089C4.58099 35.2611 4.59649 35.2611 6.89336 35.2611H9.20575L9.25296 39.5656L9.47017 39.7772C9.5375 39.8476 9.61823 39.9037 9.70754 39.942C9.79684 39.9803 9.89287 40 9.98991 40C10.0869 40 10.183 39.9803 10.2723 39.942C10.3616 39.9037 10.4423 39.8476 10.5097 39.7772L10.7269 39.5656L10.7734 35.2611H13.0858C15.3827 35.2611 15.3982 35.2611 15.5533 35.089C15.629 35.0029 15.6991 34.912 15.7631 34.8168C15.8306 34.6807 20 8.121 20 7.77675C19.9623 7.34571 19.8154 6.93167 19.5735 6.57429C19.3316 6.21691 19.0028 5.92817 18.6185 5.73574C18.2617 5.56361 18.1686 5.56362 14.5138 5.53981L10.7734 5.51668L10.7269 0.437267L10.5326 0.241334C10.4279 0.136204 10.297 0.0614928 10.1537 0.0250944C10.0104 -0.011304 9.86002 -0.00805367 9.7184 0.0344998ZM18.0195 7.13316C18.1863 7.21926 18.322 7.35611 18.4074 7.52435C18.5241 7.77471 18.5241 7.86112 18.3999 8.65099L18.2758 9.51163H15.4589C14.4415 9.47978 13.4232 9.50839 12.4092 9.59734C12.2974 9.63511 12.197 9.70083 12.1172 9.78837C12.0375 9.87591 11.981 9.98241 11.9531 10.0979C11.9253 10.2134 11.9268 10.3342 11.9578 10.4489C11.9887 10.5636 12.0479 10.6685 12.1299 10.7539L12.3323 10.9968H17.9817V11.1689C17.9817 11.3254 17.4772 14.6754 17.3996 15.0428C17.3605 15.2149 17.3449 15.2149 15.5061 15.2387C13.7759 15.2625 13.6437 15.27 13.4824 15.419C13.3653 15.5087 13.2796 15.6337 13.2378 15.7759C13.1959 15.918 13.2001 16.07 13.2497 16.2096C13.4049 16.6858 13.5195 16.7103 15.4299 16.7103H17.1527L17.1061 16.9212C17.0825 17.0464 16.9355 17.9934 16.7722 19.0343L16.4775 20.9284L10.9056 20.9746L10.7194 21.1937C10.6566 21.2619 10.6076 21.3419 10.5755 21.4293C10.5434 21.5166 10.5287 21.6094 10.5323 21.7025C10.5359 21.7956 10.5576 21.887 10.5963 21.9715C10.6351 22.0561 10.69 22.1321 10.7579 22.1952L10.9832 22.4217H13.5904C16.0188 22.4217 16.1975 22.4299 16.1975 22.5578C16.1975 22.6857 15.755 25.5628 15.6154 26.3929L15.5688 26.6514H12.3802L12.1549 26.8786C12.0687 26.9538 12.0026 27.0497 11.9627 27.1574C11.9228 27.2652 11.9104 27.3813 11.9267 27.4951C11.9429 27.6089 11.9873 27.7168 12.0557 27.8088C12.1241 27.9008 12.2144 27.974 12.3181 28.0216C12.8528 28.1576 13.407 28.1974 13.9553 28.1393H15.3597L15.3206 28.3196C15.2977 28.4135 15.0953 29.6803 14.8707 31.1294L14.4592 33.7745H5.52063L5.34998 32.6554C5.25689 32.0431 5.1557 31.411 5.13277 31.2464L5.07813 30.9566H7.30417C8.10184 30.9903 8.9009 30.9614 9.69412 30.8702C9.81019 30.7772 9.90048 30.6556 9.95626 30.5171C10.012 30.3786 10.0314 30.2279 10.0125 30.0796C9.96942 29.9313 9.88929 29.7966 9.77979 29.6884C9.59361 29.5081 9.57 29.5081 7.21108 29.4693L4.83664 29.4306L4.51825 27.3957L4.20795 25.3608L11.1377 25.2826L11.34 25.0948C11.434 25.0171 11.5061 24.9161 11.5494 24.8016C11.5927 24.6872 11.6056 24.5633 11.5867 24.4423C11.5679 24.3213 11.5181 24.2074 11.4422 24.1118C11.3662 24.0162 11.2668 23.9423 11.1539 23.8974C10.9056 23.7722 10.5643 23.7565 7.41344 23.7565C5.49702 23.7565 3.93678 23.7334 3.93678 23.6939C3.93678 23.6545 3.79714 22.7626 3.62648 21.6978C3.45582 20.6331 3.31619 19.7249 3.31619 19.6868C4.26045 19.6039 5.20845 19.5726 6.15607 19.5929L8.99595 19.5697L9.22868 19.3037C9.30923 19.2406 9.36977 19.1552 9.40284 19.0579C9.43592 18.9606 9.44009 18.8557 9.41486 18.7561C9.38431 18.5805 9.30011 18.419 9.17403 18.2941C8.97167 18.122 8.97167 18.122 6.03128 18.122H3.08279L3.04366 17.9417C3.02005 17.8478 2.88043 16.979 2.73337 16.0089C2.58632 15.0387 2.44601 14.1719 2.42307 14.076L2.38463 13.9039L6.26468 13.8576L6.45086 13.6617C6.52159 13.5943 6.57794 13.513 6.61645 13.4229C6.65496 13.3328 6.67483 13.2356 6.67483 13.1375C6.67483 13.0393 6.65496 12.9422 6.61645 12.8521C6.57794 12.7619 6.52159 12.6807 6.45086 12.6133L6.24107 12.4092H4.20054C3.07538 12.4092 2.15191 12.386 2.15191 12.3622C2.15191 12.3384 1.98866 11.2975 1.79506 10.0532C1.45374 7.88561 1.44564 7.79104 1.56976 7.53591C1.82609 6.98824 1.32895 7.01137 9.97339 7.01137C16.9119 7.00797 17.7969 7.02363 18.0195 7.13316Z" fill="#FB783A"/>
</svg>
