<svg xmlns="http://www.w3.org/2000/svg" width="29.646" height="58.804" viewBox="0 0 29.646 58.804"><g transform="translate(-127.291 511.626)"><path d="M141.694-511.566a1.782,1.782,0,0,0-.46.357c-.219.242-.23.437-.265,3.98l-.035,3.716-5.545.034-5.545.035-.656.322a3.337,3.337,0,0,0-1.9,2.715c-.035.483.759,5.729,3.06,20.246,1.714,10.779,3.152,19.648,3.2,19.729a3.227,3.227,0,0,0,.3.391c.23.253.253.253,3.658.253h3.428l.035,3.163.035,3.164.322.311a1.07,1.07,0,0,0,1.541,0l.322-.311.035-3.164.034-3.163h3.428c3.405,0,3.428,0,3.658-.253a3.9,3.9,0,0,0,.311-.4c.1-.2,6.281-39.239,6.281-39.745a3.714,3.714,0,0,0-2.048-3c-.529-.253-.667-.253-6.085-.288l-5.545-.034-.034-3.727-.035-3.739-.288-.288A1.218,1.218,0,0,0,141.694-511.566ZM154-501.132a1.323,1.323,0,0,1,.575.575c.173.368.173.495-.011,1.656l-.184,1.265h-4.176a38.421,38.421,0,0,0-4.521.126,1.034,1.034,0,0,0-.414,1.7l.3.357h8.375v.253c0,.23-.748,5.154-.863,5.694-.058.253-.081.253-2.807.288-2.565.035-2.761.046-3,.265a1.025,1.025,0,0,0-.345,1.162c.23.7.4.736,3.232.736h2.554l-.069.31c-.035.184-.253,1.576-.495,3.106l-.437,2.784-4.13.034-4.13.034-.276.322a1.039,1.039,0,0,0,.057,1.472l.334.333h3.865c3.6,0,3.865.012,3.865.2s-.656,4.417-.863,5.637l-.069.38H145.64l-.334.334a1.008,1.008,0,0,0,.242,1.68,6.95,6.95,0,0,0,2.427.173h2.082l-.058.265c-.034.138-.334,2-.667,4.13l-.61,3.888H135.471l-.253-1.645c-.138-.9-.288-1.829-.322-2.071l-.081-.426h3.3a22.828,22.828,0,0,0,3.543-.127,1.276,1.276,0,0,0,.472-1.162,1.327,1.327,0,0,0-.345-.575c-.276-.265-.311-.265-3.808-.322l-3.52-.057-.472-2.991-.46-2.991,5.131-.058,5.142-.057.3-.276a1.033,1.033,0,0,0-.276-1.76c-.368-.184-.874-.207-5.545-.207-2.841,0-5.154-.034-5.154-.092s-.207-1.369-.46-2.934-.46-2.9-.46-2.956a39.008,39.008,0,0,1,4.21-.138l4.21-.034.345-.391a.776.776,0,0,0,.276-.805,1.256,1.256,0,0,0-.357-.679c-.3-.253-.3-.253-4.659-.253h-4.371l-.058-.265c-.035-.138-.242-1.415-.46-2.841s-.426-2.7-.46-2.841l-.057-.253,2.876-.034,2.876-.034.276-.288a1.06,1.06,0,0,0,0-1.541l-.311-.3h-3.025c-1.668,0-3.037-.034-3.037-.069s-.242-1.565-.529-3.394c-.506-3.186-.518-3.325-.334-3.7.38-.805-.357-.771,12.458-.771C152.358-501.316,153.67-501.293,154-501.132Z" transform="translate(0 0)" fill="#fb783a"/></g></svg>