<svg xmlns="http://www.w3.org/2000/svg" viewBox="0 0 13.001 13.001">
    <path
        d="M8.272-7.508a.269.269,0,0,0,.259.2.269.269,0,0,0,.259-.2l.35-1.226,1.226-.35a.269.269,0,0,0,.2-.259.269.269,0,0,0-.2-.259l-1.226-.35-.35-1.226a.269.269,0,0,0-.259-.2.269.269,0,0,0-.259.2l-.35,1.226L6.7-9.6a.269.269,0,0,0-.2.259.269.269,0,0,0,.2.259l1.226.35ZM2.938-2.585l-1.021-1,1.409-.206a1.216,1.216,0,0,0,.917-.668l.63-1.277L5.5-4.454a1.22,1.22,0,0,0,.917.668l1.409.206-1.021,1a1.221,1.221,0,0,0-.35,1.077L6.7-.1,5.441-.764a1.213,1.213,0,0,0-1.135,0L3.047-.1l.241-1.407A1.212,1.212,0,0,0,2.938-2.585ZM4.327-7.379,3.151-4.992l-2.63.383A.609.609,0,0,0,.183-3.57l1.9,1.859L1.638.912a.609.609,0,0,0,.884.642L4.872.315,7.224,1.554A.609.609,0,0,0,8.107.912L7.658-1.711,9.56-3.57a.609.609,0,0,0-.338-1.038L6.594-4.992,5.418-7.379a.61.61,0,0,0-1.094,0ZM10.887-5.2l.279.98a.218.218,0,0,0,.208.157.217.217,0,0,0,.208-.157l.279-.98.98-.279A.218.218,0,0,0,13-5.687a.217.217,0,0,0-.157-.208l-.98-.279-.279-.98a.218.218,0,0,0-.208-.157.217.217,0,0,0-.208.157l-.279.98-.98.279a.218.218,0,0,0-.157.208.217.217,0,0,0,.157.208l.98.279Z"
        transform="translate(0.001 11.375)" fill="current" />
</svg>