<svg xmlns="http://www.w3.org/2000/svg" viewBox="0 0 11 11">
    <path
        d="M9.969-4.125A4.469,4.469,0,0,1,7.734-.255a4.469,4.469,0,0,1-4.469,0,4.469,4.469,0,0,1-2.234-3.87A4.469,4.469,0,0,1,3.266-8,4.469,4.469,0,0,1,7.734-8,4.469,4.469,0,0,1,9.969-4.125ZM0-4.125A5.5,5.5,0,0,0,2.75.638a5.5,5.5,0,0,0,5.5,0A5.5,5.5,0,0,0,11-4.125,5.5,5.5,0,0,0,8.25-8.888a5.5,5.5,0,0,0-5.5,0A5.5,5.5,0,0,0,0-4.125ZM4.984-7.047v2.922a.518.518,0,0,0,.23.43L7.277-2.32a.514.514,0,0,0,.715-.144.514.514,0,0,0-.144-.715L6.016-4.4V-7.047A.514.514,0,0,0,5.5-7.562.514.514,0,0,0,4.984-7.047Z"
        transform="translate(0 9.625)" fill="current" />
</svg>