<svg xmlns="http://www.w3.org/2000/svg" viewBox="0 0 13 12.188">
    <path
        d="M0-.812A.608.608,0,0,0,.609-.2H2.125A2.03,2.03,0,0,0,4.063,1.219,2.03,2.03,0,0,0,6-.2h6.391A.608.608,0,0,0,13-.812a.608.608,0,0,0-.609-.609H6A2.03,2.03,0,0,0,4.063-2.844,2.03,2.03,0,0,0,2.125-1.422H.609A.608.608,0,0,0,0-.812Zm3.25,0a.812.812,0,0,1,.813-.812.812.812,0,0,1,.813.813A.812.812,0,0,1,4.062,0,.812.812,0,0,1,3.25-.812ZM8.125-4.875a.812.812,0,0,1,.813-.812.813.813,0,0,1,.813.813.813.813,0,0,1-.812.813A.812.812,0,0,1,8.125-4.875Zm.813-2.031A2.03,2.03,0,0,0,7-5.484H.609A.608.608,0,0,0,0-4.875a.608.608,0,0,0,.609.609H7A2.03,2.03,0,0,0,8.938-2.844a2.03,2.03,0,0,0,1.937-1.422h1.516A.608.608,0,0,0,13-4.875a.608.608,0,0,0-.609-.609H10.875A2.03,2.03,0,0,0,8.938-6.906ZM4.875-8.125a.813.813,0,0,1-.812-.812.813.813,0,0,1,.813-.812.813.813,0,0,1,.813.813A.813.813,0,0,1,4.875-8.125ZM6.812-9.547a2.03,2.03,0,0,0-1.937-1.422A2.03,2.03,0,0,0,2.938-9.547H.609A.608.608,0,0,0,0-8.937a.608.608,0,0,0,.609.609H2.938A2.03,2.03,0,0,0,4.875-6.906,2.03,2.03,0,0,0,6.812-8.328h5.578A.608.608,0,0,0,13-8.937a.608.608,0,0,0-.609-.609H6.812Z"
        transform="translate(0 10.969)" fill="#fef7ec" />
</svg>