<svg xmlns="http://www.w3.org/2000/svg" viewBox="0 0 9 9">
    <path
        d="M4.5-7.031A3.656,3.656,0,0,1,7.666-5.2a3.656,3.656,0,0,1,0,3.656A3.656,3.656,0,0,1,4.5.281,3.656,3.656,0,0,1,1.334-1.547a3.656,3.656,0,0,1,0-3.656A3.656,3.656,0,0,1,4.5-7.031Zm0,8.156a4.5,4.5,0,0,0,3.9-2.25,4.5,4.5,0,0,0,0-4.5,4.5,4.5,0,0,0-3.9-2.25A4.5,4.5,0,0,0,.6-5.625a4.5,4.5,0,0,0,0,4.5A4.5,4.5,0,0,0,4.5,1.125ZM3.8-1.969a.421.421,0,0,0-.422.422.421.421,0,0,0,.422.422H5.2a.421.421,0,0,0,.422-.422A.421.421,0,0,0,5.2-1.969H5.063V-3.516a.421.421,0,0,0-.422-.422H3.8a.421.421,0,0,0-.422.422.421.421,0,0,0,.422.422h.422v1.125ZM4.5-4.5a.563.563,0,0,0,.563-.562A.563.563,0,0,0,4.5-5.625a.563.563,0,0,0-.562.563A.563.563,0,0,0,4.5-4.5Z"
        transform="translate(0 7.875)" fill="#878380" />
</svg>