<svg xmlns="http://www.w3.org/2000/svg" viewBox="0 0 12 15.959">
    <path
        d="M10.5-8A4.5,4.5,0,0,0,6-12.5,4.5,4.5,0,0,0,1.5-8a5.043,5.043,0,0,0,.478,1.787,19.091,19.091,0,0,0,1.328,2.5A45.032,45.032,0,0,0,6,.116,43.657,43.657,0,0,0,8.694-3.716a19.091,19.091,0,0,0,1.328-2.5A5.043,5.043,0,0,0,10.5-8ZM12-8C12-5.269,8.344-.406,6.741,1.6a.944.944,0,0,1-1.481,0C3.656-.406,0-5.269,0-8a6,6,0,0,1,6-6A6,6,0,0,1,12-8ZM7-8A1,1,0,0,0,6-9,1,1,0,0,0,5-8,1,1,0,0,0,6-7,1,1,0,0,0,7-8ZM3.5-8a2.5,2.5,0,0,1,1.25-2.165,2.5,2.5,0,0,1,2.5,0A2.5,2.5,0,0,1,8.5-8,2.5,2.5,0,0,1,7.25-5.835a2.5,2.5,0,0,1-2.5,0A2.5,2.5,0,0,1,3.5-8Z"
        transform="translate(0 14)" fill="current" />
</svg>