<svg xmlns="http://www.w3.org/2000/svg" viewBox="0 0 16 16.003">
    <path
        d="M11.744-5.4a1.249,1.249,0,0,0-1.459.356L9.247-3.775A9.581,9.581,0,0,1,5.775-7.247L7.041-8.281A1.245,1.245,0,0,0,7.4-9.741l-1.5-3.5a1.248,1.248,0,0,0-1.409-.731l-3.5.75A1.248,1.248,0,0,0,0-12,14,14,0,0,0,12.5,1.922c.306.031.613.056.925.069h0C13.622,2,13.809,2,14,2a1.248,1.248,0,0,0,1.222-.988l.75-3.5a1.248,1.248,0,0,0-.731-1.409l-3.5-1.5ZM13.8.5A12.5,12.5,0,0,1,1.5-11.8l3.1-.666L5.947-9.325l-1.122.919a1.5,1.5,0,0,0-.347,1.912A11.062,11.062,0,0,0,8.5-2.475a1.5,1.5,0,0,0,1.913-.347l.919-1.122L14.466-2.6Z"
        transform="translate(0 14)" fill="current" />
</svg>