<svg xmlns="http://www.w3.org/2000/svg" viewBox="0 0 8.938 11.002">
    <path
        d="M4.813-8.594a1.031,1.031,0,0,1,.516-.893,1.031,1.031,0,0,1,1.031,0,1.031,1.031,0,0,1,.516.893,1.031,1.031,0,0,1-.516.893,1.031,1.031,0,0,1-1.031,0A1.031,1.031,0,0,1,4.813-8.594ZM2.98-7.292a1.894,1.894,0,0,1,.917,0l2.041.509a1.2,1.2,0,0,1,.857.814l.423,1.379a.168.168,0,0,0,.163.12h1.04a.514.514,0,0,1,.516.516.514.514,0,0,1-.516.516H7.382a1.2,1.2,0,0,1-1.149-.849l-.12-.391-.6,1.813.69.387a.86.86,0,0,1,.4,1.005L5.82,1.014A.515.515,0,1,1,4.836.707l.735-2.353L3.68-2.709a1.2,1.2,0,0,1-.552-1.429l.7-2.105-.185-.045a.855.855,0,0,0-.417,0l-.039.011a.866.866,0,0,0-.35.18l-.958.816a.514.514,0,0,1-.726-.056.514.514,0,0,1,.056-.726l.956-.821a1.922,1.922,0,0,1,.771-.4l.039-.011ZM4.593-3.379,5.416-5.85l-.582-.144L4.106-3.813a.172.172,0,0,0,.079.2l.408.23ZM2.221-1.719l.41-1.094a1.881,1.881,0,0,0,.709.7l.105.06-.3.808a.86.86,0,0,1-.8.556H.516A.514.514,0,0,1,0-1.2a.514.514,0,0,1,.516-.516Z"
        transform="translate(0 9.625)" fill="current" />
</svg>