<svg xmlns="http://www.w3.org/2000/svg" width="13.001" height="12.998" viewBox="0 0 13.001 12.998"><path d="M9.344-6.094A4.062,4.062,0,0,0,7.313-9.612a4.062,4.062,0,0,0-4.062,0A4.062,4.062,0,0,0,1.219-6.094,4.062,4.062,0,0,0,3.25-2.576a4.062,4.062,0,0,0,4.063,0A4.062,4.062,0,0,0,9.344-6.094ZM8.559-1.953A5.256,5.256,0,0,1,5.281-.812,5.28,5.28,0,0,1,0-6.094a5.28,5.28,0,0,1,5.281-5.281,5.28,5.28,0,0,1,5.281,5.281,5.256,5.256,0,0,1-1.14,3.278l3.4,3.4a.609.609,0,0,1-.861.861Z" transform="translate(0 11.375)" fill="#472309"/></svg>