<svg xmlns="http://www.w3.org/2000/svg" viewBox="0 0 11.339 11.001">
    <path
        d="M6.185-9.625a.514.514,0,0,1,.464.29L8.123-6.3l3.291.486a.512.512,0,0,1,.415.35.518.518,0,0,1-.127.526L9.316-2.57,9.879.773a.517.517,0,0,1-.752.541L6.183-.258,3.244,1.313A.513.513,0,0,1,2.7,1.276a.521.521,0,0,1-.208-.5l.563-3.343L.668-4.937a.514.514,0,0,1-.127-.526.519.519,0,0,1,.415-.35L4.247-6.3,5.721-9.335A.516.516,0,0,1,6.185-9.625Zm0,1.7L5.057-5.6a.521.521,0,0,1-.389.286l-2.542.374L3.972-3.115a.517.517,0,0,1,.146.451L3.682-.092,5.943-1.3a.512.512,0,0,1,.486,0L8.688-.092l-.434-2.57A.511.511,0,0,1,8.4-3.113l1.846-1.828L7.7-5.317A.519.519,0,0,1,7.315-5.6Z"
        transform="translate(-0.516 9.625)" fill="#fb783a" />
</svg>