<svg xmlns="http://www.w3.org/2000/svg" viewBox="0 0 11 9.627">
    <path
        d="M3.214-4.589a4.665,4.665,0,0,1,1.427-.223H6.359a.514.514,0,0,1,.516.516.514.514,0,0,1-.516.516H4.641a3.58,3.58,0,0,0-1.525.337A2.748,2.748,0,0,0,5.842-1.031h.021c2.09-.011,4.106-2.155,4.106-5.229a6.6,6.6,0,0,0-.049-.806,3.4,3.4,0,0,1-1.841.535H5.844A2.754,2.754,0,0,0,3.214-4.589Zm-1.143.552A3.782,3.782,0,0,1,5.844-7.562H8.078a2.4,2.4,0,0,0,1.6-.612l.045-.041a2.346,2.346,0,0,0,.374-.449c.034-.054.069-.11.1-.168a.194.194,0,0,1,.348,0c.028.075.054.15.079.228.062.191.118.385.168.584.011.041.019.082.028.12A7.54,7.54,0,0,1,11-6.261C11-2.812,8.7-.015,5.865,0H5.844A3.782,3.782,0,0,1,2.187-2.819,3.6,3.6,0,0,0,1.031-.172V.172A.516.516,0,0,1,0,.172V-.172A4.636,4.636,0,0,1,2.071-4.037Z"
        transform="translate(0 8.939)" fill="current" />
</svg>