<svg xmlns="http://www.w3.org/2000/svg" viewBox="0 0 10.998 11">
    <path
        d="M8.938-7.562a2.75,2.75,0,0,0-2.75,2.75,2.79,2.79,0,0,0,.086.688H5.156V-7.219a.345.345,0,0,0-.344-.344.345.345,0,0,0-.344.344v2.952L2.305-6.43a.345.345,0,0,0-.486,0,.345.345,0,0,0,0,.486l1.82,1.82H2.063A2.063,2.063,0,0,1,0-6.187,2.063,2.063,0,0,1,2.063-8.25a2.074,2.074,0,0,1,.544.073A2.4,2.4,0,0,1,4.813-9.625,2.4,2.4,0,0,1,7.019-8.177a2.049,2.049,0,0,1,.544-.073,2.066,2.066,0,0,1,1.543.692C9.049-7.562,8.993-7.562,8.938-7.562Zm-6.4,7.01A1.039,1.039,0,0,1,3.109.1a.346.346,0,0,0,.329.245H7.563A.342.342,0,0,0,7.891.1a1.032,1.032,0,0,1,.576-.651A2.509,2.509,0,0,0,9.93-2.406H1.07A2.509,2.509,0,0,0,2.533-.552ZM0-2.849a.59.59,0,0,1,.589-.589h9.821A.59.59,0,0,1,11-2.849,3.538,3.538,0,0,1,8.879.391a1.373,1.373,0,0,1-1.317.984H3.438A1.378,1.378,0,0,1,2.118.393,3.541,3.541,0,0,1,0-2.849ZM9.969-4.812A1.032,1.032,0,0,0,8.938-5.844,1.032,1.032,0,0,0,7.906-4.812a1.027,1.027,0,0,0,.262.688H6.991a2.081,2.081,0,0,1-.118-.687A2.063,2.063,0,0,1,8.935-6.875,2.063,2.063,0,0,1,11-4.812a2.027,2.027,0,0,1-.118.688H9.7a1.027,1.027,0,0,0,.262-.687Z"
        transform="translate(0 9.625)" fill="#5f8525" />
</svg>