<svg xmlns="http://www.w3.org/2000/svg" viewBox="0 0 13 13">
    <path
        d="M6.5-10.156a5.281,5.281,0,0,1,4.574,2.641,5.281,5.281,0,0,1,0,5.281A5.281,5.281,0,0,1,6.5.406,5.281,5.281,0,0,1,1.926-2.234a5.281,5.281,0,0,1,0-5.281A5.281,5.281,0,0,1,6.5-10.156Zm0,11.781a6.5,6.5,0,0,0,5.629-3.25,6.5,6.5,0,0,0,0-6.5A6.5,6.5,0,0,0,6.5-11.375,6.5,6.5,0,0,0,.871-8.125a6.5,6.5,0,0,0,0,6.5A6.5,6.5,0,0,0,6.5,1.625ZM4.443-6.932a.607.607,0,0,0,0,.861L5.637-4.878,4.443-3.684a.607.607,0,0,0,0,.861.609.609,0,0,0,.861,0L6.5-4.017,7.691-2.823a.607.607,0,0,0,.861,0,.609.609,0,0,0,0-.861L7.358-4.878,8.552-6.071a.607.607,0,0,0,0-.861.609.609,0,0,0-.861,0L6.5-5.738,5.3-6.932A.607.607,0,0,0,4.443-6.932Z"
        transform="translate(0 11.375)" fill="current" />
</svg>